G75*
%MOIN*%
%OFA0B0*%
%FSLAX24Y24*%
%IPPOS*%
%LPD*%
%AMOC8*
5,1,8,0,0,1.08239X$1,22.5*
%
%ADD10C,0.0000*%
%ADD11R,0.0512X0.0591*%
%ADD12R,0.0591X0.0512*%
%ADD13R,0.0394X0.0551*%
%ADD14R,0.1000X0.2000*%
%ADD15R,0.4000X0.4000*%
%ADD16R,0.0280X0.0590*%
%ADD17R,0.0390X0.0310*%
%ADD18R,0.0728X0.0276*%
%ADD19C,0.0357*%
%ADD20C,0.0160*%
%ADD21C,0.0100*%
D10*
X000100Y000100D02*
X000100Y033850D01*
X021350Y033850D01*
X021350Y000100D01*
X000100Y000100D01*
X004215Y032740D02*
X004217Y032766D01*
X004223Y032792D01*
X004232Y032816D01*
X004245Y032839D01*
X004262Y032859D01*
X004281Y032877D01*
X004303Y032892D01*
X004326Y032903D01*
X004351Y032911D01*
X004377Y032915D01*
X004403Y032915D01*
X004429Y032911D01*
X004454Y032903D01*
X004478Y032892D01*
X004499Y032877D01*
X004518Y032859D01*
X004535Y032839D01*
X004548Y032816D01*
X004557Y032792D01*
X004563Y032766D01*
X004565Y032740D01*
X004563Y032714D01*
X004557Y032688D01*
X004548Y032664D01*
X004535Y032641D01*
X004518Y032621D01*
X004499Y032603D01*
X004477Y032588D01*
X004454Y032577D01*
X004429Y032569D01*
X004403Y032565D01*
X004377Y032565D01*
X004351Y032569D01*
X004326Y032577D01*
X004302Y032588D01*
X004281Y032603D01*
X004262Y032621D01*
X004245Y032641D01*
X004232Y032664D01*
X004223Y032688D01*
X004217Y032714D01*
X004215Y032740D01*
X005395Y032740D02*
X005397Y032766D01*
X005403Y032792D01*
X005412Y032816D01*
X005425Y032839D01*
X005442Y032859D01*
X005461Y032877D01*
X005483Y032892D01*
X005506Y032903D01*
X005531Y032911D01*
X005557Y032915D01*
X005583Y032915D01*
X005609Y032911D01*
X005634Y032903D01*
X005658Y032892D01*
X005679Y032877D01*
X005698Y032859D01*
X005715Y032839D01*
X005728Y032816D01*
X005737Y032792D01*
X005743Y032766D01*
X005745Y032740D01*
X005743Y032714D01*
X005737Y032688D01*
X005728Y032664D01*
X005715Y032641D01*
X005698Y032621D01*
X005679Y032603D01*
X005657Y032588D01*
X005634Y032577D01*
X005609Y032569D01*
X005583Y032565D01*
X005557Y032565D01*
X005531Y032569D01*
X005506Y032577D01*
X005482Y032588D01*
X005461Y032603D01*
X005442Y032621D01*
X005425Y032641D01*
X005412Y032664D01*
X005403Y032688D01*
X005397Y032714D01*
X005395Y032740D01*
D11*
X008536Y019100D03*
X009284Y019100D03*
X011406Y019100D03*
X012154Y019100D03*
D12*
X014050Y020066D03*
X014050Y020814D03*
X014910Y017694D03*
X014910Y016946D03*
D13*
X012160Y021267D03*
X011786Y022133D03*
X012534Y022133D03*
D14*
X014050Y031430D03*
X008050Y031430D03*
D15*
X011050Y031430D03*
D16*
X005860Y032050D03*
X004680Y032050D03*
X004090Y032050D03*
D17*
X003470Y032320D03*
X003470Y033170D03*
X006480Y033170D03*
X006480Y032310D03*
D18*
X007482Y016940D03*
X007482Y016440D03*
X007482Y015940D03*
X007482Y015440D03*
X007482Y014940D03*
X007482Y014440D03*
X007482Y013940D03*
X007482Y013440D03*
X007482Y012940D03*
X007482Y012440D03*
X007482Y011940D03*
X007482Y011440D03*
X007482Y010940D03*
X007482Y010440D03*
X007482Y009940D03*
X007482Y009440D03*
X012718Y009440D03*
X012718Y009940D03*
X012718Y010440D03*
X012718Y010940D03*
X012718Y011440D03*
X012718Y011940D03*
X012718Y012440D03*
X012718Y012940D03*
X012718Y013440D03*
X012718Y013940D03*
X012718Y014440D03*
X012718Y014940D03*
X012718Y015440D03*
X012718Y015940D03*
X012718Y016440D03*
X012718Y016940D03*
D19*
X012150Y017900D03*
X010750Y015940D03*
X011250Y015440D03*
X010250Y016440D03*
X008540Y017950D03*
X007550Y020200D03*
X006000Y016940D03*
X005500Y016440D03*
X005000Y015940D03*
X004500Y015440D03*
X004000Y014940D03*
X008540Y010440D03*
X008540Y009440D03*
X010460Y005440D03*
X010950Y004940D03*
X011460Y005940D03*
X011960Y006440D03*
X012460Y007020D03*
X012960Y007440D03*
X013460Y007940D03*
X013970Y008440D03*
X014460Y009940D03*
X014960Y010440D03*
X015460Y010940D03*
X015960Y011440D03*
X016460Y011940D03*
X016960Y012440D03*
X017460Y012940D03*
X017960Y013440D03*
X018460Y013940D03*
X018960Y014440D03*
X019460Y014940D03*
X019960Y020070D03*
X011790Y023800D03*
X010550Y019100D03*
X009250Y013440D03*
X009960Y004440D03*
X004110Y028800D03*
X000960Y029500D03*
X007550Y029500D03*
D20*
X011050Y029500D01*
X011050Y031430D01*
X014050Y031430D02*
X014050Y022133D01*
X014050Y020814D01*
X014050Y022133D02*
X012534Y022133D01*
X012160Y021267D02*
X012140Y021190D01*
X005840Y021190D01*
X005860Y032050D01*
X004090Y032050D02*
X004090Y029500D01*
X000960Y029500D01*
X011790Y023800D02*
X011790Y023253D01*
X011786Y022133D01*
D21*
X012140Y021190D02*
X012154Y019100D01*
X012150Y017900D01*
X012718Y016940D02*
X009286Y016940D01*
X009286Y014440D01*
X007482Y014440D01*
X007482Y013940D02*
X011500Y013940D01*
X011500Y008440D01*
X013970Y008440D01*
X013460Y007940D02*
X011000Y007940D01*
X011000Y012920D01*
X007482Y012940D01*
X007482Y013420D02*
X007482Y013440D01*
X009250Y013440D01*
X010040Y011940D02*
X007482Y011940D01*
X007482Y012440D02*
X010500Y012440D01*
X010500Y007440D01*
X012960Y007440D01*
X012460Y007020D02*
X010040Y007020D01*
X010040Y011940D01*
X009540Y011440D02*
X009540Y006440D01*
X011960Y006440D01*
X011460Y005940D02*
X009040Y005940D01*
X009040Y009940D01*
X007482Y009940D01*
X007482Y010440D02*
X008540Y010440D01*
X008540Y009440D02*
X007482Y009440D01*
X007482Y010440D02*
X007482Y010450D01*
X006220Y010450D01*
X006220Y005440D01*
X010460Y005440D01*
X010950Y004940D02*
X005700Y004940D01*
X005700Y010940D01*
X007482Y010940D01*
X007482Y011440D02*
X009540Y011440D01*
X007482Y013420D02*
X005200Y013420D01*
X005200Y004440D01*
X009960Y004440D01*
X012718Y009940D02*
X014460Y009940D01*
X014960Y010440D02*
X012718Y010440D01*
X012718Y010940D02*
X015460Y010940D01*
X015960Y011440D02*
X012718Y011440D01*
X012718Y011940D02*
X016460Y011940D01*
X016960Y012440D02*
X012718Y012440D01*
X012718Y012940D02*
X017460Y012940D01*
X017960Y013440D02*
X012718Y013440D01*
X012718Y013940D02*
X018460Y013940D01*
X018960Y014440D02*
X012718Y014440D01*
X012718Y014940D02*
X019460Y014940D01*
X019960Y020070D02*
X014050Y020066D01*
X014910Y019100D02*
X014910Y017694D01*
X014910Y016946D02*
X012718Y016940D01*
X012718Y016440D02*
X010250Y016440D01*
X010750Y015940D02*
X012718Y015940D01*
X012718Y015440D02*
X011250Y015440D01*
X009286Y016940D02*
X009284Y019100D01*
X009274Y020200D01*
X007550Y020200D01*
X008536Y019100D02*
X008540Y017950D01*
X007482Y016940D02*
X006000Y016940D01*
X005500Y016440D02*
X007482Y016440D01*
X007482Y015940D02*
X005000Y015940D01*
X004500Y015440D02*
X007482Y015440D01*
X007482Y014940D02*
X004000Y014940D01*
X010550Y019100D02*
X011406Y019100D01*
X012154Y019100D02*
X014910Y019100D01*
X004680Y028800D02*
X004110Y028800D01*
X004680Y028800D02*
X004680Y032050D01*
M02*
