%
M48
M72
T01C0.0197
T02C0.0350
%
T01
X8540Y9440
X8540Y10440
X9250Y13440
X10750Y15940
X11250Y15440
X10250Y16440
X8540Y17950
X7550Y20200
X6000Y16940
X5500Y16440
X5000Y15940
X4500Y15440
X4000Y14940
X10460Y5440
X10950Y4940
X11460Y5940
X11960Y6440
X12460Y7020
X12960Y7440
X13460Y7940
X13970Y8440
X14460Y9940
X14960Y10440
X15460Y10940
X15960Y11440
X16460Y11940
X16960Y12440
X17460Y12940
X17960Y13440
X18460Y13940
X18960Y14440
X19460Y14940
X19960Y20070
X12150Y17900
X10550Y19100
X11790Y23800
X7550Y29500
X4110Y28800
X960Y29500
X9960Y4440
T02
X5570Y32740
X4390Y32740
M30
