G75*
%MOIN*%
%OFA0B0*%
%FSLAX24Y24*%
%IPPOS*%
%LPD*%
%AMOC8*
5,1,8,0,0,1.08239X$1,22.5*
%
%ADD10R,0.0512X0.0591*%
%ADD11R,0.0591X0.0512*%
%ADD12R,0.0394X0.0551*%
%ADD13R,0.1000X0.2000*%
%ADD14R,0.4000X0.4000*%
%ADD15R,0.0280X0.0590*%
%ADD16R,0.0390X0.0310*%
%ADD17R,0.0728X0.0276*%
D10*
X008536Y019100D03*
X009284Y019100D03*
X011406Y019100D03*
X012154Y019100D03*
D11*
X014050Y020066D03*
X014050Y020814D03*
X014910Y017694D03*
X014910Y016946D03*
D12*
X012160Y021267D03*
X011786Y022133D03*
X012534Y022133D03*
D13*
X014050Y031430D03*
X008050Y031430D03*
D14*
X011050Y031430D03*
D15*
X005860Y032050D03*
X004680Y032050D03*
X004090Y032050D03*
D16*
X003470Y032320D03*
X003470Y033170D03*
X006480Y033170D03*
X006480Y032310D03*
D17*
X007482Y009440D03*
X007482Y009940D03*
X007482Y010440D03*
X007482Y010940D03*
X007482Y011440D03*
X007482Y011940D03*
X007482Y012440D03*
X007482Y012940D03*
X007482Y013440D03*
X007482Y013940D03*
X007482Y014440D03*
X007482Y014940D03*
X007482Y015440D03*
X007482Y015940D03*
X007482Y016440D03*
X007482Y016940D03*
X012718Y016940D03*
X012718Y016440D03*
X012718Y015940D03*
X012718Y015440D03*
X012718Y014940D03*
X012718Y014440D03*
X012718Y013940D03*
X012718Y013440D03*
X012718Y012940D03*
X012718Y012440D03*
X012718Y011940D03*
X012718Y011440D03*
X012718Y010940D03*
X012718Y010440D03*
X012718Y009940D03*
X012718Y009440D03*
M02*
