G75*
%MOIN*%
%OFA0B0*%
%FSLAX24Y24*%
%IPPOS*%
%LPD*%
%AMOC8*
5,1,8,0,0,1.08239X$1,22.5*
%
%ADD10C,0.0000*%
%ADD11R,0.0370X0.2400*%
%ADD12R,0.0370X0.2000*%
%ADD13C,0.0160*%
%ADD14C,0.0357*%
%ADD15C,0.0100*%
D10*
X000100Y000100D02*
X000100Y033850D01*
X021350Y033850D01*
X021350Y000100D01*
X000100Y000100D01*
X004215Y032740D02*
X004217Y032766D01*
X004223Y032792D01*
X004232Y032816D01*
X004245Y032839D01*
X004262Y032859D01*
X004281Y032877D01*
X004303Y032892D01*
X004326Y032903D01*
X004351Y032911D01*
X004377Y032915D01*
X004403Y032915D01*
X004429Y032911D01*
X004454Y032903D01*
X004478Y032892D01*
X004499Y032877D01*
X004518Y032859D01*
X004535Y032839D01*
X004548Y032816D01*
X004557Y032792D01*
X004563Y032766D01*
X004565Y032740D01*
X004563Y032714D01*
X004557Y032688D01*
X004548Y032664D01*
X004535Y032641D01*
X004518Y032621D01*
X004499Y032603D01*
X004477Y032588D01*
X004454Y032577D01*
X004429Y032569D01*
X004403Y032565D01*
X004377Y032565D01*
X004351Y032569D01*
X004326Y032577D01*
X004302Y032588D01*
X004281Y032603D01*
X004262Y032621D01*
X004245Y032641D01*
X004232Y032664D01*
X004223Y032688D01*
X004217Y032714D01*
X004215Y032740D01*
X005395Y032740D02*
X005397Y032766D01*
X005403Y032792D01*
X005412Y032816D01*
X005425Y032839D01*
X005442Y032859D01*
X005461Y032877D01*
X005483Y032892D01*
X005506Y032903D01*
X005531Y032911D01*
X005557Y032915D01*
X005583Y032915D01*
X005609Y032911D01*
X005634Y032903D01*
X005658Y032892D01*
X005679Y032877D01*
X005698Y032859D01*
X005715Y032839D01*
X005728Y032816D01*
X005737Y032792D01*
X005743Y032766D01*
X005745Y032740D01*
X005743Y032714D01*
X005737Y032688D01*
X005728Y032664D01*
X005715Y032641D01*
X005698Y032621D01*
X005679Y032603D01*
X005657Y032588D01*
X005634Y032577D01*
X005609Y032569D01*
X005583Y032565D01*
X005557Y032565D01*
X005531Y032569D01*
X005506Y032577D01*
X005482Y032588D01*
X005461Y032603D01*
X005442Y032621D01*
X005425Y032641D01*
X005412Y032664D01*
X005403Y032688D01*
X005397Y032714D01*
X005395Y032740D01*
D11*
X000960Y001660D03*
X020460Y001660D03*
D12*
X019960Y001860D03*
X019460Y001860D03*
X018960Y001860D03*
X018460Y001860D03*
X017960Y001860D03*
X017460Y001860D03*
X016960Y001860D03*
X016460Y001860D03*
X015960Y001860D03*
X015460Y001860D03*
X014960Y001860D03*
X014460Y001860D03*
X013960Y001860D03*
X013460Y001860D03*
X012960Y001860D03*
X012460Y001860D03*
X011960Y001860D03*
X011460Y001860D03*
X010960Y001860D03*
X010460Y001860D03*
X009960Y001860D03*
X009460Y001860D03*
X008960Y001860D03*
X008460Y001860D03*
X007960Y001860D03*
X007460Y001860D03*
X006960Y001860D03*
X006460Y001860D03*
X005960Y001860D03*
X005460Y001860D03*
X004960Y001860D03*
X004460Y001860D03*
X003960Y001860D03*
X003460Y001860D03*
X002960Y001860D03*
X002460Y001860D03*
X001960Y001860D03*
X001460Y001860D03*
D13*
X000960Y001660D02*
X000960Y029500D01*
X007550Y029500D01*
X011790Y023800D02*
X020460Y023800D01*
X020460Y001660D01*
D14*
X014960Y010440D03*
X014460Y009940D03*
X015460Y010940D03*
X015960Y011440D03*
X016460Y011940D03*
X016960Y012440D03*
X017460Y012940D03*
X017960Y013440D03*
X018460Y013940D03*
X018960Y014440D03*
X019460Y014940D03*
X019960Y020070D03*
X013970Y008440D03*
X013460Y007940D03*
X012960Y007440D03*
X012460Y007020D03*
X011960Y006440D03*
X011460Y005940D03*
X010950Y004940D03*
X010460Y005440D03*
X009960Y004440D03*
X008540Y009440D03*
X008540Y010440D03*
X009250Y013440D03*
X010750Y015940D03*
X011250Y015440D03*
X010250Y016440D03*
X008540Y017950D03*
X007550Y020200D03*
X006000Y016940D03*
X005500Y016440D03*
X005000Y015940D03*
X004500Y015440D03*
X004000Y014940D03*
X010550Y019100D03*
X012150Y017900D03*
X011790Y023800D03*
X007550Y029500D03*
X004110Y028800D03*
X000960Y029500D03*
D15*
X001530Y028800D02*
X001540Y005730D01*
X002460Y005730D01*
X002460Y001860D01*
X005960Y001860D02*
X005960Y014940D01*
X004000Y014940D01*
X004500Y015440D02*
X004660Y015440D01*
X004500Y015440D02*
X006460Y015440D01*
X006460Y001860D01*
X006960Y001860D02*
X006960Y015940D01*
X005000Y015940D01*
X005090Y015940D01*
X005500Y016440D02*
X005670Y016440D01*
X005500Y016440D02*
X007460Y016440D01*
X007460Y001860D01*
X007960Y001860D02*
X007960Y016940D01*
X006000Y016940D01*
X006050Y016940D01*
X007550Y020200D02*
X007550Y029500D01*
X004110Y028800D02*
X001530Y028800D01*
X008540Y017950D02*
X008540Y010440D01*
X008540Y009440D02*
X009750Y009440D01*
X009750Y017900D01*
X012150Y017900D01*
X010750Y015940D02*
X010750Y007710D01*
X008960Y007710D01*
X008960Y001860D01*
X008460Y001860D02*
X008460Y008190D01*
X010250Y008190D01*
X010250Y016440D01*
X011250Y015440D02*
X011250Y007200D01*
X009460Y007200D01*
X009460Y001860D01*
X009960Y001860D02*
X009960Y004440D01*
X010460Y005440D02*
X010460Y001860D01*
X010960Y001860D02*
X010950Y004940D01*
X011460Y005940D02*
X011460Y001860D01*
X011960Y001860D02*
X011960Y006440D01*
X012460Y007020D02*
X012460Y001860D01*
X012960Y001860D02*
X012960Y007440D01*
X013460Y007940D02*
X013460Y001860D01*
X013960Y001860D02*
X013970Y008440D01*
X014460Y009940D02*
X014460Y001860D01*
X014960Y001860D02*
X014960Y010440D01*
X015460Y010940D02*
X015460Y001860D01*
X015960Y001860D02*
X015960Y011440D01*
X016460Y011940D02*
X016460Y001860D01*
X016960Y001860D02*
X016960Y012440D01*
X017460Y012940D02*
X017460Y001860D01*
X017960Y001860D02*
X017960Y013440D01*
X018460Y013940D02*
X018460Y001860D01*
X018960Y001860D02*
X018960Y014440D01*
X019460Y014940D02*
X019460Y001860D01*
X019960Y001860D02*
X019960Y020070D01*
X010550Y019100D02*
X009250Y019100D01*
X009250Y013440D01*
M02*
