G75*
%MOIN*%
%OFA0B0*%
%FSLAX24Y24*%
%IPPOS*%
%LPD*%
%AMOC8*
5,1,8,0,0,1.08239X$1,22.5*
%
%ADD10C,0.0040*%
%ADD11C,0.0050*%
D10*
X000857Y003499D02*
X000780Y003576D01*
X000780Y003729D01*
X000857Y003806D01*
X001010Y003806D01*
X001010Y003652D01*
X000857Y003499D02*
X001164Y003499D01*
X001240Y003576D01*
X001240Y003729D01*
X001164Y003806D01*
X001087Y003959D02*
X001087Y004189D01*
X001010Y004266D01*
X000780Y004266D01*
X000857Y004420D02*
X001010Y004420D01*
X001087Y004496D01*
X001087Y004727D01*
X001240Y004727D02*
X000780Y004727D01*
X000780Y004496D01*
X000857Y004420D01*
X000780Y003959D02*
X001087Y003959D01*
X020180Y004036D02*
X020180Y004266D01*
X020257Y004420D02*
X020180Y004496D01*
X020180Y004727D01*
X020487Y004727D02*
X020487Y004496D01*
X020410Y004420D01*
X020257Y004420D01*
X020487Y004266D02*
X020487Y004036D01*
X020410Y003959D01*
X020257Y003959D01*
X020180Y004036D01*
X020333Y003806D02*
X020640Y003806D01*
X020640Y003499D02*
X020333Y003499D01*
X020180Y003652D01*
X020333Y003806D01*
D11*
X020760Y000760D02*
X000660Y000760D01*
X000660Y004760D01*
X018060Y004860D02*
X019860Y004860D01*
X019160Y004160D01*
X018760Y004160D01*
X018060Y004860D01*
X020760Y004860D02*
X020760Y000760D01*
M02*
